<svg width="48" height="49" viewBox="0 0 48 49" fill="none" xmlns="http://www.w3.org/2000/svg">
<rect y="0.0551758" width="48" height="48" rx="10" fill="#1774FF"/>
<path fill-rule="evenodd" clip-rule="evenodd" d="M25.8523 26.7497C25.8588 25.7396 26.1824 24.8046 26.7286 24.0396L27.1034 24.4144C27.2109 24.5219 27.3484 24.5943 27.4979 24.6222C27.6474 24.65 27.8017 24.6319 27.9407 24.5704L28.2491 24.4338C28.3995 24.5071 28.5542 24.5712 28.7123 24.6258L28.8329 24.9393C28.8876 25.0813 28.984 25.2034 29.1094 25.2895C29.2349 25.3757 29.3835 25.4218 29.5356 25.4218H30.6149C30.767 25.4218 30.9156 25.3757 31.0411 25.2895C31.1665 25.2034 31.2629 25.0813 31.3176 24.9393L31.4382 24.6259C31.5962 24.5714 31.7508 24.5073 31.9011 24.4341L32.2086 24.5704C32.3476 24.632 32.502 24.65 32.6515 24.6222C32.8009 24.5943 32.9385 24.5219 33.046 24.4144L33.8089 23.6514C33.8616 23.5988 33.9062 23.5386 33.9412 23.4728C34.7776 24.3248 35.2933 25.4926 35.2933 26.7808C35.2933 27.9449 34.8723 29.0101 34.1759 29.8324C33.9492 30.0988 33.8251 30.3866 33.7873 30.7339C33.6595 31.8945 33.9708 33.2512 34.6779 34.6888H29.2836C29.0676 33.4797 28.3389 33.0172 27.0974 33.298C26.2679 33.4419 25.863 33.3268 25.881 32.9507C25.8756 32.3677 25.7767 32.1554 25.6255 32.0438C25.2927 31.7865 25.6633 31.4572 26.0447 31.2503C25.7245 31.2251 25.3124 30.9678 25.4024 30.7609C25.4687 30.5323 25.4888 30.3679 25.4685 30.2462L25.4989 30.2394C27.3655 29.8142 28.5407 28.2539 28.5702 26.4709C28.5726 26.3203 28.5299 26.1724 28.4474 26.0463C28.365 25.9202 28.2466 25.8218 28.1076 25.7637C27.9686 25.7056 27.8153 25.6906 27.6677 25.7205C27.5201 25.7505 27.3848 25.824 27.2794 25.9316C26.8046 26.4164 26.3219 26.6606 25.8523 26.7497ZM21.2698 24.0396C21.5161 24.3844 21.7148 24.7609 21.8604 25.1589L19.7826 25.3871C19.6691 25.3995 19.56 25.4376 19.4634 25.4985C19.3668 25.5594 19.2853 25.6414 19.2251 25.7384C19.1649 25.8354 19.1275 25.9448 19.1158 26.0584C19.1041 26.172 19.1184 26.2867 19.1576 26.394L20.4463 29.9207C20.4954 30.0553 20.5819 30.173 20.6957 30.2601C20.8094 30.3473 20.9456 30.4001 21.0883 30.4125C21.231 30.4249 21.3743 30.3963 21.5014 30.3301C21.6284 30.2639 21.7339 30.1628 21.8055 30.0388L21.9711 29.7521C22.193 29.855 22.4201 29.9465 22.6514 30.0264C22.5066 30.148 22.4773 30.3514 22.596 30.7609C22.686 30.9678 22.2739 31.2251 21.9536 31.2503C22.3351 31.4572 22.7057 31.7865 22.3729 32.0438C22.2217 32.1554 22.1228 32.3677 22.1174 32.9507C22.1354 33.3268 21.7305 33.4419 20.901 33.298C19.6595 33.0172 18.9308 33.4797 18.7148 34.6888H13.3205C14.0276 33.2512 14.3389 31.8945 14.2111 30.7339C14.1733 30.3866 14.0492 30.0988 13.8224 29.8324C13.1261 29.0101 12.7051 27.9449 12.7051 26.7808C12.7051 25.4926 13.2207 24.3248 14.0572 23.4728C14.0922 23.5386 14.1368 23.5988 14.1895 23.6514L14.9524 24.4144C15.0599 24.5219 15.1975 24.5943 15.3469 24.6222C15.4964 24.65 15.6508 24.632 15.7898 24.5704L16.0981 24.4338C16.2485 24.5071 16.4032 24.5712 16.5613 24.6258L16.6819 24.9393C16.7366 25.0813 16.833 25.2034 16.9584 25.2895C17.0839 25.3757 17.2324 25.4218 17.3846 25.4218H18.4639C18.616 25.4218 18.7646 25.3757 18.89 25.2895C19.0155 25.2034 19.1119 25.0813 19.1665 24.9393L19.2872 24.6259C19.4452 24.5713 19.5998 24.5073 19.7501 24.4341L20.0576 24.5704C20.1967 24.6319 20.351 24.65 20.5005 24.6222C20.65 24.5943 20.7875 24.5219 20.895 24.4144L21.2698 24.0396ZM18.7182 17.3532C19.0703 17.4369 19.4068 17.5764 19.7148 17.7663L20.3626 17.4782L21.1255 18.2412L20.8386 18.889C21.0288 19.1973 21.1682 19.5342 21.2516 19.8867L21.9124 20.141V21.2203L21.2516 21.4746C21.1679 21.8267 21.0277 22.1626 20.8386 22.4712L21.1255 23.119L20.3626 23.882L19.7148 23.595C19.4068 23.7851 19.0704 23.9246 18.7182 24.008L18.4639 24.6688H17.3846L17.1303 24.008C16.7771 23.9244 16.4413 23.7841 16.1326 23.595L15.4848 23.882L14.7219 23.119L15.0099 22.4712C14.8197 22.1636 14.6806 21.8267 14.5958 21.4746L13.935 21.2203V20.141L14.5958 19.8867C14.6801 19.5343 14.8199 19.1975 15.0099 18.889L14.7219 18.2412L15.4848 17.4782L16.1326 17.7663C16.4406 17.5764 16.7771 17.4369 17.1292 17.3532L17.3846 16.6914H18.4639L18.7182 17.3532ZM17.9237 18.7977C16.8836 18.7977 16.0413 19.64 16.0413 20.6801C16.0413 21.7202 16.8836 22.5636 17.9237 22.5636C18.9638 22.5636 19.8072 21.7202 19.8072 20.6801C19.8072 19.64 18.9638 18.7977 17.9237 18.7977ZM30.8692 17.3532C31.2213 17.4369 31.5578 17.5764 31.8658 17.7663L32.5135 17.4782L33.2765 18.2412L32.9896 18.889C33.1797 19.1973 33.3192 19.5342 33.4026 19.8867L34.0634 20.141V21.2203L33.4026 21.4746C33.3189 21.8267 33.1787 22.1626 32.9896 22.4712L33.2765 23.119L32.5135 23.882L31.8658 23.595C31.5578 23.7851 31.2213 23.9246 30.8692 24.008L30.6149 24.6688H29.5356L29.2813 24.008C28.9281 23.9244 28.5922 23.7841 28.2836 23.595L27.6358 23.882L26.8728 23.119L27.1608 22.4712C26.9707 22.1636 26.8315 21.8267 26.7468 21.4746L26.086 21.2203V20.141L26.7468 19.8867C26.8311 19.5343 26.9708 19.1975 27.1608 18.889L26.8728 18.2412L27.6358 17.4782L28.2836 17.7663C28.5916 17.5764 28.9281 17.4369 29.2802 17.3532L29.5356 16.6914H30.6149L30.8692 17.3532ZM30.0747 18.7977C29.0346 18.7977 28.1923 19.64 28.1923 20.6801C28.1923 21.7202 29.0346 22.5636 30.0747 22.5636C31.1148 22.5636 31.9582 21.7202 31.9582 20.6801C31.9582 19.64 31.1148 18.7977 30.0747 18.7977ZM24.7354 16.2164C23.5681 15.5424 21.7813 14.6807 20.0437 16.206C20.0224 16.2247 19.996 16.2364 19.968 16.2398C19.9399 16.2431 19.9115 16.2379 19.8864 16.2249C19.8614 16.2118 19.8409 16.1914 19.8276 16.1665C19.8143 16.1415 19.8089 16.1131 19.812 16.0851C20.0966 13.8622 22.6228 12.2497 25.9249 14.1562L26.2487 13.5953C26.2666 13.5643 26.293 13.539 26.3247 13.5225C26.3565 13.506 26.3923 13.4988 26.428 13.5019C26.4637 13.505 26.4977 13.5182 26.5262 13.54C26.5546 13.5618 26.5762 13.5912 26.5885 13.6248L27.6359 16.4912C27.6481 16.5247 27.6525 16.5605 27.6489 16.596C27.6452 16.6315 27.6336 16.6657 27.6147 16.696C27.5959 16.7263 27.5705 16.7519 27.5403 16.771C27.5101 16.79 27.476 16.8019 27.4406 16.8058L24.5583 17.1223C24.5237 17.1261 24.4888 17.1202 24.4573 17.1053C24.4259 17.0905 24.3992 17.0672 24.3802 17.038C24.3611 17.0089 24.3506 16.9751 24.3496 16.9403C24.3487 16.9055 24.3574 16.8712 24.3748 16.8411L24.7354 16.2164ZM22.8683 26.6922C24.0356 27.3661 25.8224 28.2278 27.56 26.7025C27.5813 26.6839 27.6076 26.6722 27.6357 26.6689C27.6637 26.6656 27.6921 26.6708 27.7172 26.6839C27.7422 26.6969 27.7627 26.7173 27.776 26.7422C27.7893 26.7671 27.7947 26.7954 27.7916 26.8235C27.5071 29.0464 24.9809 30.6589 21.6788 28.7524L21.355 29.3133C21.3371 29.3443 21.3107 29.3695 21.2789 29.386C21.2472 29.4025 21.2114 29.4097 21.1757 29.4066C21.14 29.4035 21.106 29.3903 21.0776 29.3685C21.0491 29.3468 21.0275 29.3174 21.0151 29.2838L19.9678 26.4174C19.9555 26.3839 19.9511 26.348 19.9547 26.3125C19.9584 26.277 19.97 26.2428 19.9889 26.2125C20.0077 26.1822 20.0332 26.1566 20.0634 26.1375C20.0935 26.1185 20.1277 26.1066 20.1631 26.1028L23.0454 25.7863C23.0799 25.7825 23.1149 25.7884 23.1463 25.8032C23.1778 25.8181 23.2045 25.8414 23.2235 25.8705C23.2425 25.8997 23.2531 25.9335 23.254 25.9682C23.255 26.003 23.2463 26.0374 23.2289 26.0675L22.8683 26.6922Z" fill="white"/>
</svg>
