<svg width="12" height="14" viewBox="0 0 12 14" fill="none" xmlns="http://www.w3.org/2000/svg">
<path d="M11.0709 6.79669L6.25837 0.67169C6.22767 0.632573 6.18848 0.600944 6.14377 0.579194C6.09905 0.557444 6.04997 0.546143 6.00025 0.546143C5.95052 0.546143 5.90144 0.557444 5.85673 0.579194C5.81201 0.600944 5.77282 0.632573 5.74212 0.67169L0.929621 6.79669C0.884116 6.85453 0.859375 6.92599 0.859375 6.99958C0.859375 7.07317 0.884116 7.14463 0.929621 7.20247L5.74212 13.3275C5.77282 13.3666 5.81201 13.3982 5.85673 13.42C5.90144 13.4417 5.95052 13.453 6.00025 13.453C6.04997 13.453 6.09905 13.4417 6.14377 13.42C6.18848 13.3982 6.22767 13.3666 6.25837 13.3275L11.0709 7.20247C11.1164 7.14463 11.1411 7.07317 11.1411 6.99958C11.1411 6.92599 11.1164 6.85453 11.0709 6.79669ZM6.32837 1.82341L10.2965 6.8738L6.32837 8.67849V1.82341ZM5.67212 8.67739L1.704 6.87271L5.67212 1.82341V8.67739ZM5.67212 9.39817V12.1758L2.27712 7.85544L5.67212 9.39817ZM6.32837 9.39817L9.72337 7.85544L6.32837 12.1758V9.39817Z" fill="#F3AC19"/>
</svg>
