<svg width="48" height="49" viewBox="0 0 48 49" fill="none" xmlns="http://www.w3.org/2000/svg">
<rect y="0.0551758" width="48" height="48" rx="10" fill="#1774FF"/>
<path d="M18.0944 23.284C18.0322 22.8834 18 22.473 18 22.0552C18 17.6369 21.6052 14.0552 26.0526 14.0552C30.4999 14.0552 34.1052 17.6369 34.1052 22.0552C34.1052 23.0532 33.9213 24.0086 33.5852 24.8897C33.5154 25.0727 33.4804 25.1642 33.4646 25.2356C33.4489 25.3064 33.4428 25.3562 33.4411 25.4286C33.4394 25.5018 33.4493 25.5823 33.4692 25.7435L33.8717 29.0137C33.9153 29.3677 33.9371 29.5447 33.8782 29.6734C33.8266 29.7861 33.735 29.8757 33.6211 29.9247C33.4911 29.9806 33.3146 29.9547 32.9617 29.903L29.7765 29.4361C29.6101 29.4117 29.527 29.3995 29.4512 29.3999C29.3763 29.4004 29.3245 29.4059 29.2511 29.4213C29.177 29.4369 29.0823 29.4724 28.893 29.5433C28.0097 29.8742 27.0524 30.0552 26.0526 30.0552C25.6344 30.0552 25.2237 30.0235 24.8227 29.9625M19.6316 34.0552C22.5965 34.0552 25 31.5927 25 28.5552C25 25.5176 22.5965 23.0552 19.6316 23.0552C16.6667 23.0552 14.2632 25.5176 14.2632 28.5552C14.2632 29.1658 14.3603 29.7531 14.5395 30.3019C14.6153 30.5339 14.6532 30.6499 14.6657 30.7291C14.6786 30.8118 14.6809 30.8583 14.6761 30.9419C14.6714 31.022 14.6514 31.1125 14.6113 31.2935L14 34.0552L16.9948 33.6462C17.1583 33.6238 17.24 33.6127 17.3114 33.6132C17.3865 33.6137 17.4264 33.6178 17.5001 33.6324C17.5701 33.6464 17.6742 33.6831 17.8823 33.7566C18.4306 33.9501 19.0191 34.0552 19.6316 34.0552Z" stroke="white" stroke-width="2" stroke-linecap="round" stroke-linejoin="round"/>
</svg>
