<svg width="48" height="49" viewBox="0 0 48 49" fill="none" xmlns="http://www.w3.org/2000/svg">
<rect y="0.0551758" width="48" height="48" rx="10" fill="#1774FF"/>
<path d="M20.3232 18.723L21.1716 19.5714C22.7343 18.0093 25.2665 18.0093 26.8284 19.5714L27.6776 18.723C25.6462 16.6922 22.3546 16.6917 20.3232 18.723Z" fill="white"/>
<path d="M32.0003 22.3998C32.0003 17.9807 28.42 14.3999 24.0004 14.3999C19.582 14.3999 16.0005 17.9807 16.0005 22.3998C15.5761 22.3998 15.1691 22.5684 14.869 22.8685C14.569 23.1685 14.4004 23.5755 14.4004 23.9999V28.7999C14.4004 29.2243 14.569 29.6313 14.869 29.9313C15.1691 30.2314 15.5761 30.4 16.0005 30.4H18.4005C18.5055 30.4 18.6096 30.3793 18.7067 30.3391C18.8038 30.2989 18.892 30.24 18.9663 30.1657C19.0405 30.0914 19.0995 30.0031 19.1396 29.9061C19.1798 29.809 19.2005 29.7049 19.2004 29.5998V25.6C19.2004 25.1601 19.0007 24.4998 18.7566 24.1343L17.6006 22.4001C17.6006 18.8649 20.4657 16 24.0006 16C27.5366 16 30.4007 18.8649 30.4007 22.4001L29.2444 24.1343C29.0003 24.4998 28.8004 25.1601 28.8004 25.6V29.8235C27.6278 31.1555 25.9146 31.9998 24.0004 31.9998H22.4003V33.5999H24.0004C26.6159 33.5999 28.93 32.3397 30.3894 30.4H32.0003C32.4247 30.4 32.8317 30.2314 33.1317 29.9313C33.4318 29.6313 33.6004 29.2243 33.6004 28.7999V23.9999C33.6004 23.5755 33.4318 23.1685 33.1317 22.8685C32.8317 22.5684 32.4247 22.3998 32.0003 22.3998ZM17.6003 28.7999H16.0002V23.9999H16.744L17.4251 25.0218C17.4971 25.1351 17.597 25.4665 17.6001 25.6014L17.6003 28.7999ZM32.0003 28.7999H30.4005V25.6014C30.4036 25.4663 30.5037 25.1351 30.5754 25.0218L31.2566 23.9999H32.0003V28.7999Z" fill="white"/>
</svg>
